<?xml version="1.0" encoding="utf-8"?>
<!-- Generator: Adobe Illustrator 16.0.0, SVG Export Plug-In . SVG Version: 6.00 Build 0)  -->
<!DOCTYPE svg PUBLIC "-//W3C//DTD SVG 1.1//EN" "http://www.w3.org/Graphics/SVG/1.1/DTD/svg11.dtd">
<svg version="1.1" id="Layer_1" xmlns="http://www.w3.org/2000/svg" xmlns:xlink="http://www.w3.org/1999/xlink" x="0px" y="0px"
	 width="32px" height="32px" viewBox="290 380 32 32" enable-background="new 290 380 32 32" xml:space="preserve">
<circle fill="#008DE4" cx="306" cy="395.899" r="16"/>
<g>
	<path fill="#FFFFFF" d="M308.333,388.396H301.6l-0.558,3.119l6.075,0.007c2.992,0,3.877,1.086,3.852,2.89
		c-0.013,0.924-0.413,2.485-0.586,2.991c-0.462,1.35-1.408,2.89-4.959,2.884l-5.905-0.003l-0.559,3.12h6.717
		c2.369,0,3.377-0.275,4.444-0.769c2.365-1.093,3.773-3.428,4.337-6.474C315.297,391.624,314.251,388.396,308.333,388.396z"/>
	<path fill="#FFFFFF" d="M298.695,394.333c-1.763,0-2.016,1.149-2.183,1.843c-0.219,0.91-0.291,1.278-0.291,1.278h6.893
		c1.764,0,2.016-1.149,2.183-1.844c0.218-0.909,0.29-1.277,0.29-1.277H298.695z"/>
</g>
</svg>
